<?xml version="1.0" encoding="UTF-8" standalone="no"?>
<!-- Created with Inkscape (http://www.inkscape.org/) -->

<svg
   width="210mm"
   height="210mm"
   viewBox="0 0 210 210"
   version="1.1"
   id="svg5"
   inkscape:version="1.1.2 (0a00cf5339, 2022-02-04)"
   sodipodi:docname="a.svg"
   xmlns:inkscape="http://www.inkscape.org/namespaces/inkscape"
   xmlns:sodipodi="http://sodipodi.sourceforge.net/DTD/sodipodi-0.dtd"
   xmlns="http://www.w3.org/2000/svg"
   xmlns:svg="http://www.w3.org/2000/svg">
  <sodipodi:namedview
     id="namedview7"
     pagecolor="#ffffff"
     bordercolor="#666666"
     borderopacity="1.0"
     inkscape:pageshadow="2"
     inkscape:pageopacity="0.0"
     inkscape:pagecheckerboard="0"
     inkscape:document-units="mm"
     showgrid="false"
     fit-margin-top="0"
     fit-margin-left="0"
     fit-margin-right="0"
     fit-margin-bottom="0"
     inkscape:zoom="0.64052329"
     inkscape:cx="865.69842"
     inkscape:cy="435.58135"
     inkscape:window-width="1920"
     inkscape:window-height="1131"
     inkscape:window-x="0"
     inkscape:window-y="32"
     inkscape:window-maximized="1"
     inkscape:current-layer="layer1" />
  <defs
     id="defs2" />
  <g
     inkscape:label="Layer 1"
     inkscape:groupmode="layer"
     id="layer1">
    <path
       style="fill:none;stroke:#000000;stroke-width:0.264583px;stroke-linecap:butt;stroke-linejoin:miter;stroke-opacity:1"
       d="m 109.05683,61.805877 c -3.67804,-1.527421 -1.66138,-0.862972 -8.25442,-1.720217 -0.78712,-0.102344 -8.191685,-1.451428 -9.067522,-1.012717 -0.447088,0.223949 -0.832115,0.55475 -1.248172,0.832123 -0.583055,0.291528 -1.155274,0.605811 -1.749161,0.87458 -2.276573,1.03029 -5.584367,1.934104 -7.572756,3.548642 -5.333976,4.331091 -9.101058,9.552106 -12.381952,15.494576 -2.554515,4.626827 -4.885634,8.215646 -5.709412,13.443628 -0.916207,5.814578 0.262557,10.227628 1.751076,15.901298 0.9827,3.74566 1.677287,9.5135 6.25321,10.05357 1.704343,0.20115 5.440643,-0.30923 6.628366,-0.47939 7.60273,-1.08914 8.49518,-5.25858 13.854131,-9.73952 2.870131,-2.39989 6.220708,-3.59226 9.165302,-5.81387 2.26668,-1.71014 3.83348,-4.575298 5.35909,-6.839187 3.85824,-5.725335 7.42594,-11.590377 9.23819,-18.336273 0.62721,-2.334715 0.64966,-3.782137 1.44608,-5.77519 1.48468,-3.715441 2.6345,-5.144929 0.95024,-8.513445 -0.006,-0.01236 -2.7205,-2.397091 -2.82846,-2.432354 -0.50997,-0.166585 -1.09842,0.163224 -1.60948,0 -0.21559,-0.06885 -0.39412,-0.5289 -0.56349,-0.378786 -0.80276,0.711486 -2.41226,11.622567 -2.4999,12.117123 -2.52874,14.270365 -1.94252,19.97026 1.87154,34.467852 0.62079,2.35967 2.00708,7.39608 3.07256,10.27029 0.14308,0.38595 1.69952,3.16401 1.69952,1.5873"
       id="path42" />
  </g>
</svg>
