<?xml version="1.0" encoding="UTF-8" standalone="no"?>
<!-- Created with Inkscape (http://www.inkscape.org/) -->

<svg
   width="210mm"
   height="210mm"
   viewBox="0 0 210 210"
   version="1.1"
   id="svg5"
   sodipodi:docname="b.svg"
   inkscape:version="1.1.2 (0a00cf5339, 2022-02-04)"
   xmlns:inkscape="http://www.inkscape.org/namespaces/inkscape"
   xmlns:sodipodi="http://sodipodi.sourceforge.net/DTD/sodipodi-0.dtd"
   xmlns="http://www.w3.org/2000/svg"
   xmlns:svg="http://www.w3.org/2000/svg">
  <sodipodi:namedview
     id="namedview7"
     pagecolor="#ffffff"
     bordercolor="#666666"
     borderopacity="1.0"
     inkscape:pageshadow="2"
     inkscape:pageopacity="0.0"
     inkscape:pagecheckerboard="0"
     inkscape:document-units="mm"
     showgrid="false"
     inkscape:zoom="0.64052329"
     inkscape:cx="865.69842"
     inkscape:cy="435.58135"
     inkscape:window-width="1920"
     inkscape:window-height="1131"
     inkscape:window-x="0"
     inkscape:window-y="32"
     inkscape:window-maximized="1"
     inkscape:current-layer="layer1" />
  <defs
     id="defs2" />
  <g
     inkscape:label="Layer 1"
     inkscape:groupmode="layer"
     id="layer1">
    <path
       style="fill:none;stroke:#000000;stroke-width:0.264583px;stroke-linecap:butt;stroke-linejoin:miter;stroke-opacity:1"
       d="m 68.333572,35.276708 c -0.782318,10.701752 0.549026,21.404936 -1.40489,32.032323 -0.703197,3.824687 -1.493658,8.688059 -2.293287,12.472257 -0.02204,0.10432 -3.124422,11.425888 -3.176587,11.65471 -0.429131,1.88236 -0.62111,3.813363 -1.044787,5.696958 -0.300977,1.338096 -0.938051,2.598817 -1.126749,3.957304 -0.100193,0.72129 0.07065,5.87926 0,7.08405 -0.02331,0.39744 -0.87298,9.5413 -0.958311,10.13309 -0.104785,0.72673 -0.473202,1.40526 -0.534241,2.13697 -0.118248,1.41749 0.06164,2.84617 0,4.26726 -0.653381,15.06399 -0.573675,3.94083 -0.573675,12.70101 0,8.73693 0.794047,10.14508 -1.224118,3.33895"
       id="path71" />
    <path
       style="fill:none;stroke:#000000;stroke-width:0.264583px;stroke-linecap:butt;stroke-linejoin:miter;stroke-opacity:1"
       d="m 60.908027,95.79372 c 1.283999,-0.30776 4.859491,-6.80839 5.985357,-7.419268 7.053193,-3.826955 17.57853,-7.120837 25.671935,-7.706532 6.103676,-0.441704 12.089921,-0.322493 17.594681,2.621822 3.05455,1.633773 5.18431,4.145063 7.85428,6.177399 1.20165,0.914675 3.94559,2.093516 4.75612,3.738489 1.36938,2.779151 3.01144,5.491887 4.43202,8.333 1.47535,2.95065 1.99898,6.76454 2.50845,9.9804 0.73886,4.66387 2.1011,10.32813 0.56717,14.99221 -0.45699,1.38952 -1.52063,3.06437 -2.17477,4.37264 -0.65932,1.31866 -1.00935,2.79436 -1.79282,4.04325 -0.34887,0.55612 -1.73754,1.60835 -2.23578,2.23575 -0.63725,0.80246 -0.96572,1.846 -1.69843,2.56235 -5.28869,5.17061 -13.76837,7.41388 -20.84953,8.59362 -4.019844,0.66971 -9.699554,3.19033 -13.456643,4.79883 -0.354669,0.15184 -2.26106,1.24592 -2.891515,1.23922 -1.655926,-0.0176 -3.298732,-0.29872 -4.944935,-0.47878 -2.860167,-0.31283 -5.380895,-0.8463 -7.95119,-2.13144 -1.338384,-0.6692 -2.66583,-1.70277 -4.139435,-2.07117 -1.458351,-0.36459 -6.338879,-1.35758 -7.370204,-2.06537 -0.764233,-0.52449 -1.234173,-1.47893 -2.000422,-2.00042 -0.768906,-0.52331 -1.996646,-1.19587 -2.719721,-1.91894 -0.942247,-0.94225 1.412904,0.15471 -0.407805,-0.82088 -0.103796,-0.0556 -0.372578,0.11616 -0.353271,0 0.122023,-0.73415 0.470238,-1.41221 0.705358,-2.11831"
       id="path73" />
  </g>
</svg>
