<?xml version="1.0" encoding="UTF-8" standalone="no"?>
<!-- Created with Inkscape (http://www.inkscape.org/) -->

<svg
   width="210mm"
   height="210mm"
   viewBox="0 0 210 210"
   version="1.1"
   id="svg5"
   sodipodi:docname="c.svg"
   inkscape:version="1.1.2 (0a00cf5339, 2022-02-04)"
   xmlns:inkscape="http://www.inkscape.org/namespaces/inkscape"
   xmlns:sodipodi="http://sodipodi.sourceforge.net/DTD/sodipodi-0.dtd"
   xmlns="http://www.w3.org/2000/svg"
   xmlns:svg="http://www.w3.org/2000/svg">
  <sodipodi:namedview
     id="namedview7"
     pagecolor="#ffffff"
     bordercolor="#666666"
     borderopacity="1.0"
     inkscape:pageshadow="2"
     inkscape:pageopacity="0.0"
     inkscape:pagecheckerboard="0"
     inkscape:document-units="mm"
     showgrid="false"
     inkscape:zoom="0.64052329"
     inkscape:cx="865.69842"
     inkscape:cy="435.58135"
     inkscape:window-width="1920"
     inkscape:window-height="1131"
     inkscape:window-x="0"
     inkscape:window-y="32"
     inkscape:window-maximized="1"
     inkscape:current-layer="layer1" />
  <defs
     id="defs2" />
  <g
     inkscape:label="Layer 1"
     inkscape:groupmode="layer"
     id="layer1">
    <path
       style="fill:none;stroke:#000000;stroke-width:0.264583px;stroke-linecap:butt;stroke-linejoin:miter;stroke-opacity:1"
       d="m 112.4333,74.065875 c -3.33731,-0.02901 -11.96285,-4.894506 -14.909811,-3.715721 -0.361593,0.144637 -0.477811,0.651981 -0.826145,0.826146 -0.246312,0.123155 -0.558988,-0.06679 -0.826149,0 -0.896082,0.224022 -1.629462,0.875374 -2.478442,1.239223 -1.218596,0.522254 -2.487395,0.709362 -3.726362,1.242119 -1.802236,0.774967 -3.585993,2.283671 -5.399027,2.908535 -4.214667,1.452589 -10.02298,1.432782 -12.994526,5.394841 -0.945068,1.260091 -2.222759,2.955266 -2.497201,4.578302 -0.501076,2.963357 0.800558,-0.723831 -0.424267,2.950763 -1.605087,4.815419 -2.89646,9.158502 -3.531373,14.143737 -0.203133,1.59499 -0.914894,3.08486 -1.279181,4.65092 -0.460343,1.97901 -0.143155,3.48545 -0.416073,5.40187 -0.62576,4.39405 -0.881565,9.40009 0.0082,13.80459 1.042008,5.15804 -0.348708,-3.04952 1.283192,2.54899 0.155056,0.53195 -0.09229,1.11592 0,1.66228 0.345503,2.04538 2.259404,5.54181 3.415646,7.26532 3.323445,4.95395 10.899222,5.67825 16.060537,7.18151 6.891099,2.00708 13.78073,3.41586 20.989912,3.80367 0.63166,0.034 3.95501,0.45735 4.86973,0 1.11433,-0.55717 2.50212,-1.31607 3.80406,-1.68409 2.67269,-0.7555 4.83127,-1.27936 7.01633,-2.91829 0.26703,-0.20029 0.69224,-0.18319 0.89565,-0.44784 0.86941,-1.13112 1.3431,-3.27956 1.82659,-4.63864 0.37797,-1.06243 3.53305,-7.0444 2.75182,-9.16935 -0.35348,-0.96147 -0.62234,-1.83189 -0.62234,-2.86666"
       id="path97" />
  </g>
</svg>
