<svg xmlns="http://www.w3.org/2000/svg" id="canvas" viewBox="548.561 304.811 743.340 307.260">
<path 
d="M 567.65,318.02 C 566.94 320.08, 567.23 322.60, 567.00 328.47 C 566.77 334.34, 566.80 338.41, 566.49 347.36 C 566.17 356.32, 566.16 362.15, 565.44 373.26 C 564.73 384.36, 563.94 390.35, 562.90 402.90 C 561.86 415.45, 561.35 422.61, 560.26 436.02 C 559.17 449.43, 558.37 456.53, 557.43 469.94 C 556.49 483.36, 556.18 490.33, 555.56 503.09 C 554.94 515.85, 554.74 522.41, 554.34 533.72 C 553.93 545.03, 553.74 550.49, 553.53 559.64 C 553.33 568.79, 553.27 573.28, 553.30 579.47 C 553.33 585.66, 553.16 587.59, 553.69 590.59 C 554.23 593.59, 555.23 593.89, 555.98 594.47 C 556.73 595.04, 557.29 593.75, 557.46 593.48 C 557.63 593.20, 556.88 593.01, 556.83 593.09 C 556.78 593.18, 557.00 594.51, 557.20 593.90 C 557.41 593.29, 558.07 592.97, 557.86 590.06 C 557.65 587.15, 556.57 585.44, 556.14 579.36 C 555.70 573.28, 555.68 568.78, 555.68 559.67 C 555.68 550.55, 555.84 545.08, 556.14 533.78 C 556.45 522.48, 556.63 515.91, 557.21 503.17 C 557.79 490.42, 558.09 483.46, 559.04 470.06 C 559.98 456.66, 560.78 449.56, 561.91 436.16 C 563.05 422.76, 563.58 415.61, 564.72 403.06 C 565.86 390.51, 566.73 384.53, 567.63 373.42 C 568.52 362.30, 568.69 356.45, 569.19 347.49 C 569.70 338.52, 569.87 334.47, 570.15 328.61 C 570.42 322.75, 571.06 320.29, 570.56 318.17 C 570.06 316.05, 568.36 315.96, 567.65 318.02" 
style="stroke: black; fill: black;"/>
<path 
d="M 642.28,331.01 C 642.05 331.96, 642.23 331.88, 642.99 334.20 C 643.75 336.53, 644.91 337.66, 646.08 342.64 C 647.26 347.61, 648.05 350.83, 648.88 359.09 C 649.72 367.34, 650.12 372.59, 650.26 383.91 C 650.40 395.22, 649.91 402.08, 649.59 415.68 C 649.27 429.27, 648.72 437.01, 648.65 451.89 C 648.58 466.77, 649.14 475.30, 649.25 490.08 C 649.37 504.87, 649.31 512.41, 649.22 525.81 C 649.14 539.22, 648.93 545.90, 648.83 557.11 C 648.72 568.33, 648.71 573.64, 648.69 581.91 C 648.68 590.17, 648.77 593.27, 648.76 598.42 C 648.75 603.57, 648.25 605.78, 648.63 607.64 C 649.02 609.50, 650.14 609.57, 650.67 607.72 C 651.20 605.88, 651.24 603.60, 651.29 598.43 C 651.33 593.27, 651.03 590.15, 650.89 581.89 C 650.75 573.63, 650.62 568.33, 650.59 557.12 C 650.57 545.91, 650.75 539.23, 650.78 525.82 C 650.81 512.41, 650.86 504.85, 650.75 490.07 C 650.63 475.29, 650.08 466.77, 650.20 451.90 C 650.32 437.03, 650.90 429.33, 651.34 415.73 C 651.79 402.13, 652.32 395.27, 652.43 383.90 C 652.53 372.53, 652.26 367.28, 651.85 358.87 C 651.45 350.46, 651.14 347.21, 650.41 341.84 C 649.69 336.47, 649.49 334.49, 648.24 332.01 C 646.99 329.53, 645.36 329.65, 644.16 329.45 C 642.97 329.25, 642.52 330.06, 642.28 331.01" 
style="stroke: black; fill: black;"/>
<path 
d="M 553.07,493.53 C 554.83 493.94, 556.75 493.23, 561.37 492.66 C 565.98 492.08, 569.30 491.76, 576.15 490.65 C 583.00 489.55, 587.34 488.45, 595.62 487.13 C 603.89 485.82, 608.73 485.35, 617.54 484.08 C 626.36 482.80, 631.69 481.99, 639.68 480.76 C 647.66 479.54, 651.68 478.81, 657.47 477.94 C 663.26 477.06, 666.45 477.18, 668.63 476.39 C 670.80 475.60, 670.65 474.22, 668.33 473.98 C 666.02 473.73, 662.88 474.35, 657.07 475.16 C 651.25 475.97, 647.23 476.77, 639.25 478.03 C 631.27 479.29, 625.98 480.20, 617.17 481.44 C 608.35 482.67, 603.49 483.06, 595.18 484.21 C 586.88 485.35, 582.51 486.28, 575.64 487.17 C 568.77 488.06, 565.43 487.98, 560.82 488.67 C 556.20 489.36, 554.12 489.66, 552.57 490.64 C 551.02 491.61, 551.31 493.13, 553.07 493.53" 
style="stroke: black; fill: black;"/>
<path 
d="M 738.37,504.54 C 740.30 504.76, 742.95 504.12, 747.14 502.60 C 751.34 501.08, 753.79 499.82, 759.34 496.93 C 764.88 494.03, 768.94 492.04, 774.88 488.11 C 780.81 484.18, 783.89 481.68, 789.02 477.28 C 794.16 472.88, 796.62 470.65, 800.56 466.11 C 804.49 461.58, 806.39 459.19, 808.70 454.60 C 811.01 450.01, 811.98 447.44, 812.12 443.18 C 812.26 438.92, 811.95 436.44, 809.42 433.30 C 806.89 430.16, 804.39 428.69, 799.46 427.47 C 794.54 426.26, 791.36 426.12, 784.79 427.24 C 778.21 428.35, 774.24 429.35, 766.60 433.06 C 758.97 436.77, 754.37 439.51, 746.63 445.78 C 738.88 452.04, 734.54 456.30, 727.87 464.39 C 721.20 472.48, 717.82 477.35, 713.27 486.24 C 708.72 495.13, 706.88 500.18, 705.12 508.83 C 703.37 517.47, 703.24 521.98, 704.52 529.48 C 705.79 536.98, 707.34 540.53, 711.51 546.31 C 715.67 552.10, 718.79 554.69, 725.33 558.42 C 731.87 562.15, 736.10 563.92, 744.20 564.97 C 752.30 566.02, 757.52 564.92, 765.83 563.68 C 774.14 562.43, 779.05 561.08, 785.76 558.74 C 792.46 556.39, 796.88 553.81, 799.36 551.96 C 801.83 550.11, 801.03 548.66, 798.13 549.50 C 795.23 550.35, 791.40 553.88, 784.86 556.17 C 778.31 558.46, 773.48 559.72, 765.42 560.95 C 757.35 562.18, 752.29 563.28, 744.54 562.31 C 736.79 561.34, 732.84 559.59, 726.66 556.08 C 720.48 552.58, 717.57 550.18, 713.63 544.78 C 709.68 539.37, 708.19 536.16, 706.94 529.06 C 705.68 521.96, 705.70 517.64, 707.36 509.27 C 709.01 500.90, 710.76 495.92, 715.20 487.23 C 719.64 478.53, 722.98 473.71, 729.56 465.79 C 736.15 457.88, 740.47 453.69, 748.12 447.65 C 755.77 441.61, 760.36 439.00, 767.80 435.60 C 775.24 432.20, 779.18 431.48, 785.31 430.66 C 791.44 429.84, 794.32 430.40, 798.44 431.49 C 802.56 432.59, 804.05 433.82, 805.91 436.13 C 807.78 438.43, 807.90 439.66, 807.76 443.01 C 807.62 446.37, 807.18 448.72, 805.22 452.90 C 803.26 457.07, 801.63 459.52, 797.96 463.89 C 794.29 468.26, 791.87 470.50, 786.87 474.75 C 781.86 479.00, 778.81 481.40, 772.94 485.14 C 767.08 488.87, 763.03 490.74, 757.56 493.43 C 752.10 496.13, 749.63 496.99, 745.62 498.61 C 741.61 500.22, 738.95 500.31, 737.51 501.50 C 736.06 502.68, 736.45 504.32, 738.37 504.54" 
style="stroke: black; fill: black;"/>
<path 
d="M 890.21,319.90 C 889.28 321.66, 889.18 323.63, 888.29 329.21 C 887.40 334.79, 886.93 338.51, 885.77 347.79 C 884.61 357.07, 883.79 363.47, 882.49 375.60 C 881.18 387.74, 880.60 395.17, 879.24 408.46 C 877.87 421.74, 877.12 428.73, 875.65 442.05 C 874.17 455.37, 873.14 462.57, 871.87 475.05 C 870.59 487.53, 869.83 493.91, 869.26 504.45 C 868.69 515.00, 868.59 520.01, 869.01 527.76 C 869.44 535.52, 870.31 538.80, 871.40 543.22 C 872.49 547.65, 873.53 548.68, 874.47 549.89 C 875.41 551.10, 876.17 550.73, 876.09 549.27 C 876.01 547.81, 875.02 546.93, 874.08 542.60 C 873.14 538.27, 871.98 535.22, 871.40 527.61 C 870.82 520.00, 870.74 515.02, 871.17 504.54 C 871.60 494.07, 872.33 487.68, 873.55 475.22 C 874.78 462.75, 875.79 455.55, 877.28 442.23 C 878.77 428.92, 879.53 421.92, 880.99 408.64 C 882.45 395.36, 883.10 387.94, 884.58 375.85 C 886.06 363.75, 887.00 357.37, 888.37 348.15 C 889.73 338.92, 890.49 335.27, 891.40 329.72 C 892.32 324.17, 893.19 322.37, 892.95 320.41 C 892.71 318.45, 891.14 318.14, 890.21 319.90" 
style="stroke: black; fill: black;"/>
<path 
d="M 970.31,308.38 C 969.31 309.38, 968.84 310.21, 967.83 314.09 C 966.83 317.98, 966.58 320.48, 965.26 327.80 C 963.93 335.13, 962.82 340.20, 961.22 350.73 C 959.61 361.26, 958.88 367.83, 957.23 380.46 C 955.58 393.08, 954.69 400.63, 952.98 413.84 C 951.27 427.05, 950.19 434.00, 948.68 446.51 C 947.18 459.02, 946.47 465.38, 945.45 476.40 C 944.42 487.41, 943.98 492.61, 943.56 501.58 C 943.14 510.55, 942.88 514.49, 943.36 521.24 C 943.83 528.00, 944.74 530.80, 945.94 535.36 C 947.14 539.93, 947.76 541.70, 949.35 544.06 C 950.93 546.42, 952.68 546.82, 953.87 547.17 C 955.05 547.52, 955.45 546.87, 955.27 545.81 C 955.09 544.76, 954.17 544.19, 952.99 541.90 C 951.80 539.61, 950.76 538.53, 949.36 534.35 C 947.96 530.17, 946.73 527.54, 946.00 521.00 C 945.26 514.46, 945.43 510.55, 945.68 501.66 C 945.94 492.77, 946.33 487.55, 947.27 476.56 C 948.21 465.57, 948.90 459.21, 950.38 446.71 C 951.86 434.21, 952.94 427.27, 954.69 414.07 C 956.44 400.87, 957.37 393.31, 959.15 380.72 C 960.93 368.13, 961.75 361.58, 963.61 351.12 C 965.47 340.67, 966.80 335.67, 968.46 328.46 C 970.12 321.25, 971.05 318.96, 971.92 315.08 C 972.79 311.21, 973.12 310.44, 972.80 309.09 C 972.48 307.75, 971.30 307.38, 970.31 308.38" 
style="stroke: black; fill: black;"/>
<path 
d="M 1096.86,470.47 C 1097.86 470.64, 1099.18 469.92, 1099.49 468.58 C 1099.81 467.25, 1099.63 465.45, 1098.44 463.79 C 1097.24 462.13, 1096.54 460.91, 1093.51 460.28 C 1090.48 459.64, 1088.25 460.17, 1083.29 460.61 C 1078.33 461.04, 1075.19 461.30, 1068.71 462.47 C 1062.23 463.64, 1058.06 464.05, 1050.89 466.46 C 1043.71 468.87, 1039.46 470.42, 1032.84 474.50 C 1026.21 478.59, 1023.00 481.38, 1017.78 486.88 C 1012.56 492.38, 1010.21 495.59, 1006.74 502.02 C 1003.26 508.44, 1001.67 512.27, 1000.41 519.01 C 999.14 525.76, 999.13 529.67, 1000.42 535.76 C 1001.71 541.85, 1003.09 544.90, 1006.87 549.45 C 1010.65 554.01, 1013.31 556.02, 1019.30 558.53 C 1025.30 561.05, 1029.19 562.06, 1036.86 562.03 C 1044.52 562.00, 1049.15 561.14, 1057.62 558.37 C 1066.08 555.61, 1070.97 553.10, 1079.18 548.22 C 1087.38 543.33, 1091.69 540.27, 1098.62 533.95 C 1105.55 527.63, 1109.08 523.80, 1113.82 516.62 C 1118.56 509.44, 1120.39 505.40, 1122.33 498.05 C 1124.26 490.69, 1124.47 486.45, 1123.50 479.85 C 1122.53 473.25, 1121.21 470.08, 1117.47 465.06 C 1113.72 460.05, 1110.62 457.74, 1104.77 454.77 C 1098.92 451.80, 1095.03 450.99, 1088.21 450.23 C 1081.39 449.48, 1076.98 450.24, 1070.68 450.99 C 1064.37 451.73, 1059.33 452.72, 1056.66 453.94 C 1054.00 455.17, 1054.45 457.06, 1057.33 457.11 C 1060.21 457.17, 1064.95 454.94, 1071.06 454.22 C 1077.16 453.50, 1081.40 452.82, 1087.86 453.50 C 1094.32 454.17, 1097.93 454.90, 1103.36 457.58 C 1108.80 460.26, 1111.57 462.36, 1115.04 466.89 C 1118.51 471.43, 1119.75 474.17, 1120.70 480.27 C 1121.65 486.38, 1121.59 490.39, 1119.81 497.40 C 1118.03 504.40, 1116.37 508.34, 1111.82 515.31 C 1107.27 522.27, 1103.82 526.05, 1097.05 532.22 C 1090.28 538.39, 1086.00 541.42, 1077.96 546.16 C 1069.91 550.89, 1065.04 553.31, 1056.82 555.91 C 1048.60 558.51, 1044.12 559.22, 1036.86 559.17 C 1029.60 559.12, 1026.02 558.02, 1020.52 555.67 C 1015.02 553.31, 1012.76 551.51, 1009.36 547.39 C 1005.96 543.28, 1004.73 540.66, 1003.54 535.09 C 1002.34 529.52, 1002.23 525.90, 1003.38 519.56 C 1004.52 513.22, 1005.97 509.52, 1009.25 503.37 C 1012.54 497.22, 1014.79 494.09, 1019.81 488.81 C 1024.83 483.53, 1027.93 480.84, 1034.35 476.98 C 1040.76 473.13, 1044.88 471.65, 1051.87 469.53 C 1058.86 467.41, 1062.99 467.09, 1069.29 466.38 C 1075.58 465.67, 1078.80 465.66, 1083.36 465.98 C 1087.91 466.30, 1089.73 467.61, 1092.05 467.98 C 1094.37 468.36, 1094.43 468.04, 1094.96 467.86 C 1095.50 467.67, 1094.83 467.09, 1094.73 467.07 C 1094.62 467.04, 1094.03 467.06, 1094.45 467.74 C 1094.88 468.43, 1095.85 470.30, 1096.86 470.47" 
style="stroke: black; fill: black;"/>
<path 
d="M 1269.79,346.90 C 1269.08 348.14, 1269.13 349.47, 1269.11 352.88 C 1269.09 356.28, 1269.51 358.28, 1269.68 363.94 C 1269.85 369.60, 1270.13 373.41, 1269.95 381.17 C 1269.76 388.93, 1269.57 393.72, 1268.76 402.72 C 1267.95 411.72, 1267.25 416.96, 1265.89 426.16 C 1264.53 435.35, 1263.53 440.14, 1261.96 448.71 C 1260.40 457.29, 1259.12 461.85, 1258.08 469.03 C 1257.04 476.21, 1257.12 479.68, 1256.76 484.63 C 1256.41 489.57, 1255.95 491.89, 1256.30 493.76 C 1256.65 495.63, 1257.83 495.75, 1258.53 493.97 C 1259.23 492.19, 1259.32 489.79, 1259.79 484.88 C 1260.25 479.97, 1259.94 476.56, 1260.87 469.41 C 1261.79 462.26, 1262.92 457.73, 1264.40 449.15 C 1265.89 440.57, 1266.90 435.75, 1268.30 426.52 C 1269.71 417.28, 1270.45 412.03, 1271.43 402.98 C 1272.40 393.94, 1272.70 389.11, 1273.19 381.31 C 1273.67 373.50, 1273.64 369.68, 1273.85 363.96 C 1274.05 358.24, 1274.46 356.17, 1274.22 352.71 C 1273.98 349.26, 1273.54 347.85, 1272.66 346.69 C 1271.77 345.53, 1270.49 345.66, 1269.79 346.90" 
style="stroke: black; fill: black;"/>
<path 
d="M 1286.10,493.67 C 1284.71 493.53, 1283.29 494.34, 1281.88 495.34 C 1280.48 496.33, 1279.83 497.18, 1279.07 498.64 C 1278.31 500.10, 1277.80 501.39, 1278.09 502.64 C 1278.37 503.88, 1279.23 504.66, 1280.48 504.86 C 1281.74 505.06, 1282.93 504.49, 1284.35 503.63 C 1285.78 502.78, 1286.72 502.11, 1287.61 500.59 C 1288.51 499.07, 1289.13 497.44, 1288.82 496.05 C 1288.52 494.67, 1287.49 493.82, 1286.10 493.67" 
style="stroke: black; fill: black;"/>
</svg>