<?xml version="1.0" encoding="UTF-8" standalone="no"?>
<!-- Created with Inkscape (http://www.inkscape.org/) -->

<svg
   width="210mm"
   height="210mm"
   viewBox="0 0 210 210"
   version="1.1"
   id="svg5"
   sodipodi:docname="hello_world.svg"
   inkscape:version="1.1.2 (0a00cf5339, 2022-02-04)"
   xmlns:inkscape="http://www.inkscape.org/namespaces/inkscape"
   xmlns:sodipodi="http://sodipodi.sourceforge.net/DTD/sodipodi-0.dtd"
   xmlns="http://www.w3.org/2000/svg"
   xmlns:svg="http://www.w3.org/2000/svg">
  <sodipodi:namedview
     id="namedview7"
     pagecolor="#ffffff"
     bordercolor="#666666"
     borderopacity="1.0"
     inkscape:pageshadow="2"
     inkscape:pageopacity="0.0"
     inkscape:pagecheckerboard="0"
     inkscape:document-units="mm"
     showgrid="false"
     inkscape:zoom="0.64052329"
     inkscape:cx="865.69842"
     inkscape:cy="435.58135"
     inkscape:window-width="1920"
     inkscape:window-height="1131"
     inkscape:window-x="0"
     inkscape:window-y="32"
     inkscape:window-maximized="1"
     inkscape:current-layer="layer1" />
  <defs
     id="defs2" />
  <g
     inkscape:label="Layer 1"
     inkscape:groupmode="layer"
     id="layer1">
    <path
       style="fill:none;stroke:#000000;stroke-width:0.264583px;stroke-linecap:butt;stroke-linejoin:miter;stroke-opacity:1"
       d="m 15.620598,33.191936 c -0.37103,5.178634 0.22963,10.276009 0.590528,15.420843 0.283853,4.046495 0.538195,8.09643 0.675947,12.150529 0.14719,4.331859 -0.478409,9.354584 0,13.761453 0.08362,0.770241 0.37581,1.503275 0.563716,2.254911 0.192359,0.769422 0.491514,1.519788 0.577077,2.308262 0.108228,0.997323 -0.106739,2.01205 0,3.009532 0.08234,0.769443 0.488254,1.481979 0.563048,2.252189 0.278275,2.865615 -0.319204,5.833594 0,8.695021 0.42366,3.797805 1.165173,7.414754 1.165173,11.281014 0,3.30973 -0.06928,6.56073 -0.534722,9.80781 -0.08039,0.56086 -0.457376,1.05166 -0.537532,1.61256 -0.354508,2.4807 0.148049,4.77394 -0.479281,7.21984 -0.250273,0.97579 -0.217271,3.68955 0,4.56373 0.169954,0.68379 0.422352,1.66062 0.413074,1.64775 -1.140882,-1.58194 -0.868285,-3.16983 -1.088958,-5.16599"
       id="path338" />
    <path
       style="fill:none;stroke:#000000;stroke-width:0.264583px;stroke-linecap:butt;stroke-linejoin:miter;stroke-opacity:1"
       d="m 19.42731,95.351853 c 0.963038,-4.203076 1.453378,-8.852797 3.156355,-12.857422 1.397962,-3.287368 0.318545,1.109734 1.652295,-2.891517 0.408098,-1.224293 0.617046,-2.608752 2.065369,-3.304591 3.899109,-1.873297 16.159991,-2.868212 21.699784,-3.771868 6.124678,-0.999064 9.859438,-3.00505 13.71347,2.545657 6.585701,9.48495 3.28028,18.039366 2.014593,28.384368 -0.363469,2.97078 -0.430588,5.9714 -0.549296,8.96197 -0.1407,3.54464 -0.660374,8.17448 0.4695,11.62745 0.06438,0.19675 0.292762,0.29277 0.439142,0.43915 0.137928,0.41378 0.307952,0.81822 0.41378,1.24136 0.147418,0.58943 -0.336426,1.63459 0.543343,0.75482"
       id="path340" />
    <path
       style="fill:none;stroke:#000000;stroke-width:0.264583px;stroke-linecap:butt;stroke-linejoin:miter;stroke-opacity:1"
       d="m 88.709721,92.797851 c 0.623755,0.748686 1.097127,1.654188 1.871263,2.246064 3.765296,2.878801 17.238086,3.271528 21.739436,3.280738 1.74557,0.0036 3.46427,-0.439608 5.20329,-0.590767 1.24446,-0.108175 3.25463,0.118488 4.36016,-0.434279 0.12316,-0.06158 -0.0974,-0.315712 0,-0.413073 1.96862,-1.968614 2.59187,-2.242521 4.26429,-5.623742 1.62971,-3.294875 3.72994,-14.202836 0.61376,-17.319019 -1.50061,-1.500611 -5.92372,-2.078025 -7.93503,-2.078025 -3.23832,0 -5.99709,0.777047 -9.22588,1.100958 -5.04035,0.505648 -11.075229,0.735113 -15.311769,4.073279 -3.195153,2.517611 -5.816647,9.223999 -7.067759,12.977357 -1.275757,3.827293 -2.291178,7.764015 -2.95253,11.731638 -0.259916,1.55931 0.183131,2.83009 0.479155,4.29776 1.077666,5.34303 2.385557,10.68788 7.132883,14.21345 3.363169,2.49764 7.710911,3.3939 11.67369,4.44793 12.16401,3.23542 24.8006,4.09287 37.17235,1.79011 3.87824,-0.72187 9.50348,-1.34641 13.13917,-3.33878 2.35285,-1.28937 1.27495,-4.00882 2.61726,-1.46414"
       id="path342" />
    <path
       style="fill:none;stroke:#000000;stroke-width:0.264583px;stroke-linecap:butt;stroke-linejoin:miter;stroke-opacity:1"
       d="m 164.13268,81.956078 c -0.19616,8.009827 0.12956,15.974161 0.6183,23.971942 0.37252,6.09582 1.99969,16.06577 6.58879,20.65487 0.82219,0.82219 2.30682,2.35267 3.67609,1.65229 3.94933,-2.02005 7.1561,-5.25475 10.55357,-8.10695 2.08148,-1.74741 2.95946,-3.17483 4.06803,-5.88302 3.20716,-7.83489 3.87195,-16.488464 4.38952,-24.814626 0.099,-1.593057 -0.2514,-8.161674 -1.33732,-9.247592 -0.33092,-0.330918 -0.73455,0.691409 -0.79809,1.155064 -0.45616,3.328739 0,7.068318 0,10.43069 0,3.691888 0,7.383778 0,11.075664 0,3.71721 -0.2615,7.24182 -0.53507,10.93932 -0.0693,0.93622 0.12607,1.88606 0,2.81633 -0.86701,6.39749 -2.44475,12.84521 -3.71104,19.17667 -1.21413,6.07068 -2.05963,9.97659 -2.29114,16.36565 -0.2102,5.80095 0.19236,11.40682 -1.55329,17.04655 -0.53573,1.73082 -1.32144,3.73158 -3.00598,4.72609 -3.71505,2.1933 -10.62375,5.09531 -15.26098,3.87832 -7.01698,-1.84154 -6.18987,-2.64854 -12.08704,-6.40229 -1.986,-1.26415 -4.13345,-2.26416 -6.10623,-3.54882 -1.37987,-1.04106 -2.75974,-2.08213 -4.13961,-3.12319 -0.41999,-0.41999 -0.78602,-0.90198 -1.25997,-1.25997 -0.12499,-0.0944 -0.98987,-0.30784 0.004,-0.30784"
       id="path344" />
  </g>
</svg>
