<?xml version="1.0" encoding="UTF-8" standalone="no"?>
<!-- Created with Inkscape (http://www.inkscape.org/) -->

<svg
   width="210mm"
   height="210mm"
   viewBox="0 0 210 210"
   version="1.1"
   id="svg5"
   sodipodi:docname="hello_world.svg"
   inkscape:version="1.1.2 (0a00cf5339, 2022-02-04)"
   xmlns:inkscape="http://www.inkscape.org/namespaces/inkscape"
   xmlns:sodipodi="http://sodipodi.sourceforge.net/DTD/sodipodi-0.dtd"
   xmlns="http://www.w3.org/2000/svg"
   xmlns:svg="http://www.w3.org/2000/svg">
  <sodipodi:namedview
     id="namedview7"
     pagecolor="#ffffff"
     bordercolor="#666666"
     borderopacity="1.0"
     inkscape:pageshadow="2"
     inkscape:pageopacity="0.0"
     inkscape:pagecheckerboard="0"
     inkscape:document-units="mm"
     showgrid="false"
     inkscape:zoom="0.64052329"
     inkscape:cx="865.69842"
     inkscape:cy="435.58135"
     inkscape:window-width="1920"
     inkscape:window-height="1131"
     inkscape:window-x="0"
     inkscape:window-y="32"
     inkscape:window-maximized="1"
     inkscape:current-layer="layer1" />
  <defs
     id="defs2" />
  <g
     inkscape:label="Layer 1"
     inkscape:groupmode="layer"
     id="layer1">
    <path
       style="fill:none;stroke:#000000;stroke-width:0.264583px;stroke-linecap:butt;stroke-linejoin:miter;stroke-opacity:1"
       d="m 19.134006,24.068804 c 0.317471,5.568577 -1.08335,11.145774 -2.431195,16.36545 -0.182233,0.705718 0.101357,1.464816 0,2.186599 -0.258947,1.844016 -0.856112,2.847747 -0.856112,4.713047 0,0.11725 0,-0.234495 0,-0.351745 0,-1.265032 -0.08955,-2.236568 0.413074,-3.241813 0.517465,-1.034928 4.972241,-5.777764 5.783031,-6.196105 3.654598,-1.885648 8.492486,7.811257 10.640241,9.959012"
       id="path173" />
    <path
       style="fill:none;stroke:#000000;stroke-width:0.264583px;stroke-linecap:butt;stroke-linejoin:miter;stroke-opacity:1"
       d="m 40.924249,40.54898 c 3.940842,0.115385 8.641723,-3.62577 8.641723,-7.425052 0,-0.678418 0.349202,-1.453613 0,-2.035252 -0.758944,-1.26411 -6.292707,6.957859 -6.652569,7.403343 -0.599366,0.741971 -1.758508,1.131457 -1.989154,2.056961 -0.241136,0.9676 0.508188,1.928577 0.75515,2.894706 0.47761,1.868437 1.089322,1.860148 2.072429,3.334805 2.370709,3.556064 4.247692,1.023435 6.461487,-1.190206"
       id="path175" />
    <path
       style="fill:none;stroke:#000000;stroke-width:0.264583px;stroke-linecap:butt;stroke-linejoin:miter;stroke-opacity:1"
       d="m 60.767872,24.87182 c -0.929473,4.94751 -0.431025,1.516159 -0.431025,10.393164 0,4.686927 -0.714883,9.240708 2.800879,12.756523"
       id="path177" />
    <path
       style="fill:none;stroke:#000000;stroke-width:0.264583px;stroke-linecap:butt;stroke-linejoin:miter;stroke-opacity:1"
       d="m 73.557978,30.061789 c -1.089281,3.900117 -2.192493,9.520967 -1.371785,13.644242 0.285316,1.433441 0.826148,2.527271 0.826148,4.111183"
       id="path179" />
    <path
       style="fill:none;stroke:#000000;stroke-width:0.264583px;stroke-linecap:butt;stroke-linejoin:miter;stroke-opacity:1"
       d="m 90.660679,35.812777 c -2.602902,1.090623 -4.506547,2.883437 -4.506547,5.783032 0,1.990225 0.934585,2.960714 2.065366,4.543812 0.594974,0.832964 0.908357,2.160137 1.982423,2.456431 2.347071,0.647467 5.738021,-5.603277 6.466025,-7.430172 0.308684,-0.774626 0.291221,-1.642454 0.407905,-2.468118 0.22156,-1.567762 -0.03715,-1.097325 -0.826148,-2.478442 -0.622403,-1.089496 -1.18995,-3.065158 -2.476249,-3.721595 -1.933149,-0.986549 -5.903938,-0.67478 -6.891099,1.225492"
       id="path181" />
    <path
       style="fill:none;stroke:#000000;stroke-width:0.264583px;stroke-linecap:butt;stroke-linejoin:miter;stroke-opacity:1"
       d="m 20.025742,66.280934 c 1.108289,4.527238 0.147938,9.168746 3.625312,12.64612 0.371796,0.371798 1.78866,1.950683 2.478442,2.065369 1.045141,0.173773 1.437888,-0.739939 2.067385,-1.239877 1.889696,-1.500767 3.784904,-3.186057 3.784904,-5.832925 0,-0.128132 -1.338056,-3.296917 -0.789186,-2.39441 2.664304,4.380915 4.353909,9.790459 8.875223,12.051117 2.088036,1.044017 7.116887,-6.787634 7.90321,-8.355692 0.51358,-1.024157 -0.609267,-3.881991 -1.212546,-4.485267 -0.360222,-0.360225 -0.408805,-7.94e-4 -0.04858,0.35932"
       id="path183" />
    <path
       style="fill:none;stroke:#000000;stroke-width:0.264583px;stroke-linecap:butt;stroke-linejoin:miter;stroke-opacity:1"
       d="m 63.644388,70.376753 c -2.609805,1.843108 -1.889813,0.985017 -3.520078,3.267879 -2.092021,2.929464 -0.6135,6.82629 1.652294,9.092086 0.277498,0.277495 0.87371,1.117529 1.239221,1.239221 0.883941,0.294293 1.922857,0.41383 2.893761,0.41383 0.407427,0 0.935948,0.289845 1.22228,0 3.810444,-3.857197 0.793469,-7.531211 -0.427167,-11.193127 -0.299289,-0.897866 -0.858975,-1.717947 -1.239221,-2.478444 -0.123156,-0.246309 0.275169,-0.83697 0,-0.826146 -0.627679,0.02469 -1.214062,0.323133 -1.82109,0.484701 z"
       id="path185" />
    <path
       style="fill:none;stroke:#000000;stroke-width:0.264583px;stroke-linecap:butt;stroke-linejoin:miter;stroke-opacity:1"
       d="m 76.710894,71.431572 c 0.05272,1.270911 2.744694,11.852013 2.65064,11.997214 -0.395972,0.611315 -1.089527,-1.044009 -1.335153,-1.729695 -0.730756,-2.039982 -1.577295,-6.41327 -0.497383,-8.573095 0.31613,-0.632259 -1.089366,-1.355347 -0.818104,-1.694424 0.539699,-0.674624 1.672486,-0.45276 2.470398,-0.784018 0.419762,-0.174265 0.811549,-0.683588 1.239221,-0.826146 0.388305,-0.129434 3.845505,1.535269 4.802563,1.843778"
       id="path187" />
    <path
       style="fill:none;stroke:#000000;stroke-width:0.264583px;stroke-linecap:butt;stroke-linejoin:miter;stroke-opacity:1"
       d="m 102.32086,66.677619 c -0.6151,5.131995 -0.50759,10.372801 -0.50759,15.60513"
       id="path189" />
    <path
       style="fill:none;stroke:#000000;stroke-width:0.264583px;stroke-linecap:butt;stroke-linejoin:miter;stroke-opacity:1"
       d="m 118.86072,73.654869 c -0.27538,-0.666303 -0.4196,-1.403498 -0.82614,-1.998909 -0.67863,-0.993881 -3.04337,-0.247115 -3.7481,0.05431 -4.60737,1.970627 -6.19882,8.239448 -3.00762,12.070556 0.27539,0.275384 0.55077,0.550765 0.82615,0.826148 0.13596,0 0.30866,-0.09295 0.40788,0 0.093,0.08708 -0.12288,0.348586 0,0.382114 0.61283,0.167204 2.10162,-1.896917 2.30544,-2.305412 1.67862,-3.364243 2.06537,-6.680145 2.06537,-10.305968 0,-2.208244 0,-4.416491 0,-6.624735 0,-0.137692 -0.13653,-0.395177 0,-0.413073 0.3445,-0.04516 0.49137,0.491358 0.73705,0.737047"
       id="path191" />
  </g>
</svg>
